<svg xmlns="http://www.w3.org/2000/svg" xmlns:xlink="http://www.w3.org/1999/xlink" viewBox="0 0 100 116"><defs><style>.cls-1{isolation:isolate;}.cls-2{fill:url(#linear-gradient);}.cls-3,.cls-4{fill:#f2e6d7;}.cls-3{opacity:0.5;}.cls-11,.cls-12,.cls-13,.cls-14,.cls-3,.cls-6,.cls-7,.cls-8,.cls-9{mix-blend-mode:multiply;}.cls-5{fill:url(#linear-gradient-2);}.cls-6{fill:url(#linear-gradient-3);}.cls-7{fill:url(#linear-gradient-4);}.cls-8{fill:url(#linear-gradient-5);}.cls-9{fill:url(#linear-gradient-6);}.cls-10{fill:url(#linear-gradient-7);}.cls-11{fill:url(#linear-gradient-8);}.cls-12{fill:url(#linear-gradient-9);}.cls-13{fill:url(#linear-gradient-10);}.cls-14{fill:url(#linear-gradient-11);}</style><linearGradient id="linear-gradient" x1="50" y1="92.94" x2="50" y2="1.19" gradientUnits="userSpaceOnUse"><stop offset="0" stop-color="#e6d1b6"/><stop offset="1" stop-color="#f2e6d7"/></linearGradient><linearGradient id="linear-gradient-2" x1="52.83" y1="104.14" x2="72.83" y2="104.14" xlink:href="#linear-gradient"/><linearGradient id="linear-gradient-3" x1="56.65" y1="109.31" x2="69.01" y2="109.31" xlink:href="#linear-gradient"/><linearGradient id="linear-gradient-4" x1="52.83" y1="104.33" x2="62.83" y2="104.33" xlink:href="#linear-gradient"/><linearGradient id="linear-gradient-5" x1="62.83" y1="99.93" x2="65.92" y2="99.93" xlink:href="#linear-gradient"/><linearGradient id="linear-gradient-6" x1="62.83" y1="104.33" x2="72.83" y2="104.33" xlink:href="#linear-gradient"/><linearGradient id="linear-gradient-7" x1="27.83" y1="104.14" x2="47.83" y2="104.14" xlink:href="#linear-gradient"/><linearGradient id="linear-gradient-8" x1="31.65" y1="109.31" x2="44.01" y2="109.31" xlink:href="#linear-gradient"/><linearGradient id="linear-gradient-9" x1="27.83" y1="104.33" x2="37.83" y2="104.33" xlink:href="#linear-gradient"/><linearGradient id="linear-gradient-10" x1="37.83" y1="99.93" x2="40.92" y2="99.93" xlink:href="#linear-gradient"/><linearGradient id="linear-gradient-11" x1="37.83" y1="104.33" x2="47.83" y2="104.33" xlink:href="#linear-gradient"/></defs><title>User</title><g class="cls-1"><g id="Layer_1" data-name="Layer 1"><path class="cls-2" d="M50,1.5A45.57,45.57,0,1,0,95.36,47.06,45.46,45.46,0,0,0,50,1.5Zm0,86.89A41.33,41.33,0,1,1,91.13,47.06,41.28,41.28,0,0,1,50,88.39Z"/><path class="cls-3" d="M50,2.2A44.87,44.87,0,1,0,94.66,47.06,44.81,44.81,0,0,0,50,2.2Zm0,86.19A41.33,41.33,0,1,1,91.13,47.06,41.28,41.28,0,0,1,50,88.39Z"/><path class="cls-4" d="M50,5.09a42,42,0,1,0,41.79,42A41.93,41.93,0,0,0,50,5.09Zm0,79.65A37.68,37.68,0,1,1,87.5,47.06,37.63,37.63,0,0,1,50,84.74Z"/><polygon class="cls-5" points="62.83 94.63 65.92 100.89 72.83 101.89 67.83 106.77 69.01 113.65 62.83 110.4 56.65 113.65 57.83 106.77 52.83 101.89 59.74 100.89 62.83 94.63"/><polygon class="cls-6" points="56.65 113.65 62.83 104.97 69.01 113.65 62.83 110.4 56.65 113.65"/><polygon class="cls-7" points="62.83 104.97 57.83 106.77 52.83 101.89 62.83 104.97"/><polygon class="cls-8" points="62.83 94.9 62.83 104.97 65.92 100.89 62.83 94.9"/><polygon class="cls-9" points="72.83 101.89 62.83 104.97 67.83 106.77 72.83 101.89"/><polygon class="cls-10" points="37.83 94.63 40.92 100.89 47.83 101.89 42.83 106.77 44.01 113.65 37.83 110.4 31.65 113.65 32.83 106.77 27.83 101.89 34.74 100.89 37.83 94.63"/><polygon class="cls-11" points="31.65 113.65 37.83 104.97 44.01 113.65 37.83 110.4 31.65 113.65"/><polygon class="cls-12" points="37.83 104.97 32.83 106.77 27.83 101.89 37.83 104.97"/><polygon class="cls-13" points="37.83 94.9 37.83 104.97 40.92 100.89 37.83 94.9"/><polygon class="cls-14" points="47.83 101.89 37.83 104.97 42.83 106.77 47.83 101.89"/></g></g></svg>