<svg xmlns="http://www.w3.org/2000/svg" xmlns:xlink="http://www.w3.org/1999/xlink" viewBox="0 0 100 116"><defs><style>.cls-1{isolation:isolate;}.cls-2{fill:url(#linear-gradient);}.cls-3{fill:#f2e6d7;opacity:0.5;}.cls-10,.cls-12,.cls-13,.cls-14,.cls-15,.cls-17,.cls-18,.cls-19,.cls-20,.cls-22,.cls-23,.cls-24,.cls-25,.cls-3,.cls-6,.cls-7,.cls-8,.cls-9{mix-blend-mode:multiply;}.cls-4{fill:url(#linear-gradient-2);}.cls-5{fill:url(#linear-gradient-3);}.cls-7{fill:url(#linear-gradient-4);}.cls-8{fill:url(#linear-gradient-5);}.cls-9{fill:url(#linear-gradient-6);}.cls-10{fill:url(#linear-gradient-7);}.cls-11{fill:url(#linear-gradient-8);}.cls-12{fill:url(#linear-gradient-9);}.cls-13{fill:url(#linear-gradient-10);}.cls-14{fill:url(#linear-gradient-11);}.cls-15{fill:url(#linear-gradient-12);}.cls-16{fill:url(#linear-gradient-13);}.cls-17{fill:url(#linear-gradient-14);}.cls-18{fill:url(#linear-gradient-15);}.cls-19{fill:url(#linear-gradient-16);}.cls-20{fill:url(#linear-gradient-17);}.cls-21{fill:url(#linear-gradient-18);}.cls-22{fill:url(#linear-gradient-19);}.cls-23{fill:url(#linear-gradient-20);}.cls-24{fill:url(#linear-gradient-21);}.cls-25{fill:url(#linear-gradient-22);}</style><linearGradient id="linear-gradient" x1="50" y1="92.94" x2="50" y2="1.19" gradientUnits="userSpaceOnUse"><stop offset="0.18" stop-color="#c9681f"/><stop offset="0.25" stop-color="#e18448"/><stop offset="0.34" stop-color="#e79562"/><stop offset="0.43" stop-color="#e5a371"/><stop offset="0.52" stop-color="#efd7a8"/><stop offset="0.6" stop-color="#e5a371"/><stop offset="0.69" stop-color="#e79562"/><stop offset="0.77" stop-color="#e18449"/><stop offset="1" stop-color="#c9681f"/></linearGradient><linearGradient id="linear-gradient-2" x1="8.21" y1="47.06" x2="91.79" y2="47.06" xlink:href="#linear-gradient"/><linearGradient id="linear-gradient-3" x1="-57.5" y1="94.14" x2="-38.98" y2="94.14" gradientTransform="translate(68)" xlink:href="#linear-gradient"/><linearGradient id="linear-gradient-4" x1="-53.96" y1="98.93" x2="-42.51" y2="98.93" gradientTransform="translate(68)" gradientUnits="userSpaceOnUse"><stop offset="0" stop-color="#c9681f"/><stop offset="0.64" stop-color="#eed5a7"/><stop offset="1" stop-color="#df8053"/></linearGradient><linearGradient id="linear-gradient-5" x1="-57.5" y1="94.31" x2="-48.24" y2="94.31" xlink:href="#linear-gradient-4"/><linearGradient id="linear-gradient-6" x1="-48.24" y1="90.24" x2="-45.38" y2="90.24" xlink:href="#linear-gradient-4"/><linearGradient id="linear-gradient-7" x1="-48.24" y1="94.31" x2="-38.98" y2="94.31" xlink:href="#linear-gradient-4"/><linearGradient id="linear-gradient-8" x1="-38.57" y1="104.14" x2="-20.04" y2="104.14" gradientTransform="translate(68)" xlink:href="#linear-gradient"/><linearGradient id="linear-gradient-9" x1="-35.03" y1="108.93" x2="-23.58" y2="108.93" xlink:href="#linear-gradient-4"/><linearGradient id="linear-gradient-10" x1="-38.57" y1="104.31" x2="-29.3" y2="104.31" xlink:href="#linear-gradient-4"/><linearGradient id="linear-gradient-11" x1="-29.3" y1="100.24" x2="-26.44" y2="100.24" xlink:href="#linear-gradient-4"/><linearGradient id="linear-gradient-12" x1="-29.3" y1="104.31" x2="-20.04" y2="104.31" xlink:href="#linear-gradient-4"/><linearGradient id="linear-gradient-13" x1="-14.22" y1="104.14" x2="4.31" y2="104.14" gradientTransform="translate(68)" xlink:href="#linear-gradient"/><linearGradient id="linear-gradient-14" x1="-10.68" y1="108.93" x2="0.77" y2="108.93" xlink:href="#linear-gradient-4"/><linearGradient id="linear-gradient-15" x1="-14.22" y1="104.31" x2="-4.95" y2="104.31" xlink:href="#linear-gradient-4"/><linearGradient id="linear-gradient-16" x1="-4.95" y1="100.24" x2="-2.09" y2="100.24" xlink:href="#linear-gradient-4"/><linearGradient id="linear-gradient-17" x1="-4.95" y1="104.31" x2="4.31" y2="104.31" xlink:href="#linear-gradient-4"/><linearGradient id="linear-gradient-18" x1="4.52" y1="94.14" x2="23.05" y2="94.14" gradientTransform="translate(68)" xlink:href="#linear-gradient"/><linearGradient id="linear-gradient-19" x1="8.06" y1="98.93" x2="19.51" y2="98.93" xlink:href="#linear-gradient-4"/><linearGradient id="linear-gradient-20" x1="4.52" y1="94.31" x2="13.79" y2="94.31" xlink:href="#linear-gradient-4"/><linearGradient id="linear-gradient-21" x1="13.79" y1="90.24" x2="16.65" y2="90.24" xlink:href="#linear-gradient-4"/><linearGradient id="linear-gradient-22" x1="13.79" y1="94.31" x2="23.05" y2="94.31" xlink:href="#linear-gradient-4"/></defs><title>User</title><g class="cls-1"><g id="Layer_1" data-name="Layer 1"><path class="cls-2" d="M50,1.5A45.57,45.57,0,1,0,95.36,47.06,45.46,45.46,0,0,0,50,1.5Zm0,86.89A41.33,41.33,0,1,1,91.13,47.06,41.28,41.28,0,0,1,50,88.39Z"/><path class="cls-3" d="M50,2.2A44.87,44.87,0,1,0,94.66,47.06,44.81,44.81,0,0,0,50,2.2Zm0,86.19A41.33,41.33,0,1,1,91.13,47.06,41.28,41.28,0,0,1,50,88.39Z"/><path class="cls-4" d="M50,5.09a42,42,0,1,0,41.79,42A41.93,41.93,0,0,0,50,5.09Zm0,79.65A37.68,37.68,0,1,1,87.5,47.06,37.63,37.63,0,0,1,50,84.74Z"/><polygon class="cls-5" points="19.76 85.33 22.62 91.13 29.02 92.06 24.39 96.57 25.49 102.95 19.76 99.94 14.04 102.95 15.13 96.57 10.5 92.06 16.9 91.13 19.76 85.33"/><g class="cls-6"><polygon class="cls-7" points="14.04 102.95 19.76 94.91 25.49 102.95 19.76 99.94 14.04 102.95"/><polygon class="cls-8" points="19.76 94.91 15.13 96.57 10.5 92.06 19.76 94.91"/><polygon class="cls-9" points="19.76 85.58 19.76 94.91 22.62 91.13 19.76 85.58"/><polygon class="cls-10" points="29.02 92.06 19.76 94.91 24.39 96.57 29.02 92.06"/></g><polygon class="cls-11" points="38.7 95.33 41.56 101.13 47.96 102.06 43.33 106.57 44.42 112.95 38.7 109.94 32.97 112.95 34.07 106.57 29.43 102.06 35.84 101.13 38.7 95.33"/><g class="cls-6"><polygon class="cls-12" points="32.97 112.95 38.7 104.91 44.42 112.95 38.7 109.94 32.97 112.95"/><polygon class="cls-13" points="38.7 104.91 34.07 106.57 29.43 102.06 38.7 104.91"/><polygon class="cls-14" points="38.7 95.58 38.7 104.91 41.56 101.13 38.7 95.58"/><polygon class="cls-15" points="47.96 102.06 38.7 104.91 43.33 106.57 47.96 102.06"/></g><polygon class="cls-16" points="63.05 95.33 65.91 101.13 72.31 102.06 67.68 106.57 68.77 112.95 63.05 109.94 57.32 112.95 58.41 106.57 53.78 102.06 60.18 101.13 63.05 95.33"/><g class="cls-6"><polygon class="cls-17" points="57.32 112.95 63.05 104.91 68.77 112.95 63.05 109.94 57.32 112.95"/><polygon class="cls-18" points="63.05 104.91 58.41 106.57 53.78 102.06 63.05 104.91"/><polygon class="cls-19" points="63.05 95.58 63.05 104.91 65.91 101.13 63.05 95.58"/><polygon class="cls-20" points="72.31 102.06 63.05 104.91 67.68 106.57 72.31 102.06"/></g><polygon class="cls-21" points="81.79 85.33 84.65 91.13 91.05 92.06 86.42 96.57 87.51 102.95 81.79 99.94 76.06 102.95 77.16 96.57 72.52 92.06 78.92 91.13 81.79 85.33"/><g class="cls-6"><polygon class="cls-22" points="76.06 102.95 81.79 94.91 87.51 102.95 81.79 99.94 76.06 102.95"/><polygon class="cls-23" points="81.79 94.91 77.16 96.57 72.52 92.06 81.79 94.91"/><polygon class="cls-24" points="81.79 85.58 81.79 94.91 84.65 91.13 81.79 85.58"/><polygon class="cls-25" points="91.05 92.06 81.79 94.91 86.42 96.57 91.05 92.06"/></g></g></g></svg>