<svg xmlns="http://www.w3.org/2000/svg" xmlns:xlink="http://www.w3.org/1999/xlink" viewBox="0 0 100 116"><defs><style>.cls-1{isolation:isolate;}.cls-2{fill:url(#linear-gradient);}.cls-3{fill:url(#linear-gradient-2);}.cls-4{fill:url(#linear-gradient-3);}.cls-5{fill:url(#linear-gradient-4);}.cls-11,.cls-12,.cls-13,.cls-14,.cls-6,.cls-7,.cls-8,.cls-9{mix-blend-mode:multiply;}.cls-6{fill:url(#linear-gradient-5);}.cls-7{fill:url(#linear-gradient-6);}.cls-8{fill:url(#linear-gradient-7);}.cls-9{fill:url(#linear-gradient-8);}.cls-10{fill:url(#linear-gradient-9);}.cls-11{fill:url(#linear-gradient-10);}.cls-12{fill:url(#linear-gradient-11);}.cls-13{fill:url(#linear-gradient-12);}.cls-14{fill:url(#linear-gradient-13);}</style><linearGradient id="linear-gradient" x1="50" y1="92.94" x2="50" y2="1.19" gradientUnits="userSpaceOnUse"><stop offset="0.18" stop-color="#9d9d9d"/><stop offset="0.25" stop-color="#b0b8b3"/><stop offset="0.34" stop-color="#c6ccc9"/><stop offset="0.43" stop-color="#d5dcd5"/><stop offset="0.52" stop-color="#ddefef"/><stop offset="0.6" stop-color="#d5dcd5"/><stop offset="0.69" stop-color="#c6ccc9"/><stop offset="0.77" stop-color="#aab4bc"/><stop offset="0.88" stop-color="#9d9d9d"/></linearGradient><linearGradient id="linear-gradient-2" x1="5.34" y1="47.06" x2="94.66" y2="47.06" xlink:href="#linear-gradient"/><linearGradient id="linear-gradient-3" x1="50" y1="5.66" x2="50" y2="91.55" xlink:href="#linear-gradient"/><linearGradient id="linear-gradient-4" x1="27.5" y1="103.8" x2="47.5" y2="103.8" xlink:href="#linear-gradient"/><linearGradient id="linear-gradient-5" x1="31.32" y1="108.97" x2="43.68" y2="108.97" gradientUnits="userSpaceOnUse"><stop offset="0" stop-color="#98959d"/><stop offset="0.31" stop-color="#aeb1a2"/><stop offset="0.53" stop-color="#dae4ff"/><stop offset="0.72" stop-color="#adb0a7"/><stop offset="0.89" stop-color="#98959d"/></linearGradient><linearGradient id="linear-gradient-6" x1="27.5" y1="103.99" x2="37.5" y2="103.99" xlink:href="#linear-gradient-5"/><linearGradient id="linear-gradient-7" x1="37.5" y1="99.59" x2="40.59" y2="99.59" xlink:href="#linear-gradient-5"/><linearGradient id="linear-gradient-8" x1="37.5" y1="103.99" x2="47.5" y2="103.99" xlink:href="#linear-gradient-5"/><linearGradient id="linear-gradient-9" x1="52.5" y1="103.8" x2="72.5" y2="103.8" xlink:href="#linear-gradient"/><linearGradient id="linear-gradient-10" x1="56.32" y1="108.97" x2="68.68" y2="108.97" xlink:href="#linear-gradient-5"/><linearGradient id="linear-gradient-11" x1="52.5" y1="103.99" x2="62.5" y2="103.99" xlink:href="#linear-gradient-5"/><linearGradient id="linear-gradient-12" x1="62.5" y1="99.59" x2="65.59" y2="99.59" xlink:href="#linear-gradient-5"/><linearGradient id="linear-gradient-13" x1="62.5" y1="103.99" x2="72.5" y2="103.99" xlink:href="#linear-gradient-5"/></defs><title>User</title><g class="cls-1"><g id="Layer_1" data-name="Layer 1"><path class="cls-2" d="M50,1.5A45.57,45.57,0,1,0,95.36,47.06,45.46,45.46,0,0,0,50,1.5Zm0,86.89A41.33,41.33,0,1,1,91.13,47.06,41.28,41.28,0,0,1,50,88.39Z"/><path class="cls-3" d="M50,2.2A44.87,44.87,0,1,0,94.66,47.06,44.81,44.81,0,0,0,50,2.2Zm0,86.19A41.33,41.33,0,1,1,91.13,47.06,41.28,41.28,0,0,1,50,88.39Z"/><path class="cls-4" d="M50,5.09a42,42,0,1,0,41.79,42A41.93,41.93,0,0,0,50,5.09Zm0,79.65A37.68,37.68,0,1,1,87.5,47.06,37.63,37.63,0,0,1,50,84.74Z"/><polygon class="cls-5" points="37.5 94.29 40.59 100.55 47.5 101.55 42.5 106.43 43.68 113.31 37.5 110.06 31.32 113.31 32.5 106.43 27.5 101.55 34.41 100.55 37.5 94.29"/><polygon class="cls-6" points="31.32 113.31 37.5 104.63 43.68 113.31 37.5 110.06 31.32 113.31"/><polygon class="cls-7" points="37.5 104.63 32.5 106.43 27.5 101.55 37.5 104.63"/><polygon class="cls-8" points="37.5 94.56 37.5 104.63 40.59 100.55 37.5 94.56"/><polygon class="cls-9" points="47.5 101.55 37.5 104.63 42.5 106.43 47.5 101.55"/><polygon class="cls-10" points="62.5 94.29 65.59 100.55 72.5 101.55 67.5 106.43 68.68 113.31 62.5 110.06 56.32 113.31 57.5 106.43 52.5 101.55 59.41 100.55 62.5 94.29"/><polygon class="cls-11" points="56.32 113.31 62.5 104.63 68.68 113.31 62.5 110.06 56.32 113.31"/><polygon class="cls-12" points="62.5 104.63 57.5 106.43 52.5 101.55 62.5 104.63"/><polygon class="cls-13" points="62.5 94.56 62.5 104.63 65.59 100.55 62.5 94.56"/><polygon class="cls-14" points="72.5 101.55 62.5 104.63 67.5 106.43 72.5 101.55"/></g></g></svg>