<svg xmlns="http://www.w3.org/2000/svg" xmlns:xlink="http://www.w3.org/1999/xlink" viewBox="0 0 100 116"><defs><style>.cls-1{isolation:isolate;}.cls-2{fill:url(#linear-gradient);}.cls-3,.cls-4{fill:#f2e6d7;}.cls-3{opacity:0.5;}.cls-3,.cls-6,.cls-7,.cls-8,.cls-9{mix-blend-mode:multiply;}.cls-5{fill:url(#linear-gradient-2);}.cls-6{fill:url(#linear-gradient-3);}.cls-7{fill:url(#linear-gradient-4);}.cls-8{fill:url(#linear-gradient-5);}.cls-9{fill:url(#linear-gradient-6);}</style><linearGradient id="linear-gradient" x1="50" y1="92.94" x2="50" y2="1.19" gradientUnits="userSpaceOnUse"><stop offset="0" stop-color="#e6d1b6"/><stop offset="1" stop-color="#f2e6d7"/></linearGradient><linearGradient id="linear-gradient-2" x1="38.45" y1="105.14" x2="58.45" y2="105.14" xlink:href="#linear-gradient"/><linearGradient id="linear-gradient-3" x1="42.27" y1="110.31" x2="54.64" y2="110.31" xlink:href="#linear-gradient"/><linearGradient id="linear-gradient-4" x1="38.45" y1="105.33" x2="48.45" y2="105.33" xlink:href="#linear-gradient"/><linearGradient id="linear-gradient-5" x1="48.45" y1="100.93" x2="51.54" y2="100.93" xlink:href="#linear-gradient"/><linearGradient id="linear-gradient-6" x1="48.45" y1="105.33" x2="58.45" y2="105.33" xlink:href="#linear-gradient"/></defs><title>User</title><g class="cls-1"><g id="Layer_1" data-name="Layer 1"><path class="cls-2" d="M50,1.5A45.57,45.57,0,1,0,95.36,47.06,45.46,45.46,0,0,0,50,1.5Zm0,86.89A41.33,41.33,0,1,1,91.13,47.06,41.28,41.28,0,0,1,50,88.39Z"/><path class="cls-3" d="M50,2.2A44.87,44.87,0,1,0,94.66,47.06,44.81,44.81,0,0,0,50,2.2Zm0,86.19A41.33,41.33,0,1,1,91.13,47.06,41.28,41.28,0,0,1,50,88.39Z"/><path class="cls-4" d="M50,5.09a42,42,0,1,0,41.79,42A41.93,41.93,0,0,0,50,5.09Zm0,79.65A37.68,37.68,0,1,1,87.5,47.06,37.63,37.63,0,0,1,50,84.74Z"/><polygon class="cls-5" points="48.45 95.63 51.55 101.89 58.45 102.89 53.45 107.77 54.63 114.65 48.45 111.4 42.27 114.65 43.45 107.77 38.45 102.89 45.37 101.89 48.45 95.63"/><polygon class="cls-6" points="42.27 114.65 48.45 105.97 54.63 114.65 48.45 111.4 42.27 114.65"/><polygon class="cls-7" points="48.45 105.97 43.45 107.77 38.45 102.89 48.45 105.97"/><polygon class="cls-8" points="48.45 95.9 48.45 105.97 51.55 101.89 48.45 95.9"/><polygon class="cls-9" points="58.45 102.89 48.45 105.97 53.45 107.77 58.45 102.89"/></g></g></svg>